<svg id="visual" viewBox="0 0 1920 1079" width="1920" height="1079" xmlns="http://www.w3.org/2000/svg" xmlns:xlink="http://www.w3.org/1999/xlink" version="1.1"><rect x="0" y="0" width="1920" height="1079" fill="#181f21"></rect><defs><linearGradient id="grad1_0" x1="43.8%" y1="0%" x2="100%" y2="100%"><stop offset="14.411492122335497%" stop-color="#3d2fc4" stop-opacity="1"></stop><stop offset="85.5885078776645%" stop-color="#3d2fc4" stop-opacity="1"></stop></linearGradient></defs><defs><linearGradient id="grad1_1" x1="43.8%" y1="0%" x2="100%" y2="100%"><stop offset="14.411492122335497%" stop-color="#3d2fc4" stop-opacity="1"></stop><stop offset="85.5885078776645%" stop-color="#003a7a" stop-opacity="1"></stop></linearGradient></defs><defs><linearGradient id="grad1_2" x1="43.8%" y1="0%" x2="100%" y2="100%"><stop offset="14.411492122335497%" stop-color="#181f21" stop-opacity="1"></stop><stop offset="85.5885078776645%" stop-color="#003a7a" stop-opacity="1"></stop></linearGradient></defs><defs><linearGradient id="grad2_0" x1="0%" y1="0%" x2="56.2%" y2="100%"><stop offset="14.411492122335497%" stop-color="#3d2fc4" stop-opacity="1"></stop><stop offset="85.5885078776645%" stop-color="#3d2fc4" stop-opacity="1"></stop></linearGradient></defs><defs><linearGradient id="grad2_1" x1="0%" y1="0%" x2="56.2%" y2="100%"><stop offset="14.411492122335497%" stop-color="#003a7a" stop-opacity="1"></stop><stop offset="85.5885078776645%" stop-color="#3d2fc4" stop-opacity="1"></stop></linearGradient></defs><defs><linearGradient id="grad2_2" x1="0%" y1="0%" x2="56.2%" y2="100%"><stop offset="14.411492122335497%" stop-color="#003a7a" stop-opacity="1"></stop><stop offset="85.5885078776645%" stop-color="#181f21" stop-opacity="1"></stop></linearGradient></defs><g transform="translate(1920, 0)"><path d="M0 593.5C-47.6 575.6 -95.2 557.7 -147 548.6C-198.9 539.6 -255 539.3 -296.7 513.9C-338.5 488.6 -365.8 438.3 -396.7 396.7C-427.5 355.1 -461.9 322.1 -489.3 282.5C-516.7 242.9 -537.3 196.5 -553.5 148.3C-569.7 100.1 -581.6 50.1 -593.4 0L0 0Z" fill="#002e48"></path><path d="M0 395.6C-31.7 383.7 -63.4 371.8 -98 365.8C-132.6 359.7 -170 359.5 -197.8 342.6C-225.6 325.8 -243.9 292.2 -264.5 264.5C-285 236.7 -307.9 214.8 -326.2 188.3C-344.5 161.9 -358.2 131 -369 98.9C-379.8 66.7 -387.7 33.4 -395.6 0L0 0Z" fill="#003fa8"></path><path d="M0 197.8C-15.9 191.9 -31.7 185.9 -49 182.9C-66.3 179.9 -85 179.8 -98.9 171.3C-112.8 162.9 -121.9 146.1 -132.2 132.2C-142.5 118.4 -154 107.4 -163.1 94.2C-172.2 81 -179.1 65.5 -184.5 49.4C-189.9 33.4 -193.9 16.7 -197.8 0L0 0Z" fill="#3d2fc4"></path></g><g transform="translate(0, 1079)"><path d="M0 -593.4C56.9 -597.9 113.8 -602.3 153.6 -573.2C193.4 -544.1 216.1 -481.5 263.5 -456.4C310.9 -431.3 382.9 -443.9 413.7 -413.7C444.4 -383.4 433.8 -310.4 452.1 -261C470.3 -211.6 517.4 -185.8 545.7 -146.2C574.1 -106.7 583.8 -53.3 593.5 0L0 0Z" fill="#002e48"></path><path d="M0 -395.6C37.9 -398.6 75.9 -401.6 102.4 -382.2C128.9 -362.7 144.1 -321 175.7 -304.3C207.3 -287.6 255.3 -295.9 275.8 -275.8C296.3 -255.6 289.2 -206.9 301.4 -174C313.5 -141.1 344.9 -123.9 363.8 -97.5C382.7 -71.1 389.2 -35.6 395.6 0L0 0Z" fill="#003fa8"></path><path d="M0 -197.8C19 -199.3 37.9 -200.8 51.2 -191.1C64.5 -181.4 72 -160.5 87.8 -152.1C103.6 -143.8 127.6 -148 137.9 -137.9C148.1 -127.8 144.6 -103.5 150.7 -87C156.8 -70.5 172.5 -61.9 181.9 -48.7C191.4 -35.6 194.6 -17.8 197.8 0L0 0Z" fill="#3d2fc4"></path></g></svg>